<?xml version="1.0" encoding="UTF-8"?>
<svg id="Layer_1" xmlns="http://www.w3.org/2000/svg" version="1.1" viewBox="0 0 1045.75 554.81">
  <!-- Generator: Adobe Illustrator 30.6.0, SVG Export Plug-In . SVG Version: 2.1.4 Build 109)  -->
  <defs>
    <style>
      .st0 {
        fill: #00ca00;
      }

      .st1 {
        fill: none;
        stroke: #ff6d00;
        stroke-miterlimit: 10;
        stroke-width: 1.37px;
      }

      .st2 {
        fill: #fff;
      }
    </style>
  </defs>
  <g>
    <path class="st0" d="M433.71,148.68c-2.79,0-4.48-1.33-5.02-3.97l-4.18-22.42c-.56-2.64-2.23-3.97-5.02-3.97h-23.88c-2.79,0-4.4,1.33-4.82,3.97l-4.4,22.42c-.41,2.66-2.02,3.97-4.82,3.97h-31.62c-4.18,0-5.87-2.02-5.02-6.07L372.34,6.04c.41-2.64,2.02-3.97,4.82-3.97h60.75c2.79,0,4.46,1.33,5.02,3.97l27.23,136.57c.84,4.05-.77,6.07-4.82,6.07h-31.64,0ZM394.97,99.67c-.56,4.05,1.12,6.07,5.02,6.07h15.29c4.05,0,5.66-2.02,4.82-6.07l-7.53-39.38c-1.67-8.66-3.36-12.99-5.02-12.99-1.54,0-3.15,4.33-4.82,12.99l-7.74,39.38h-.02Z"/>
    <path class="st0" d="M513.29,2.07c17.32,0,32.05,7.48,44.2,22.42,3.77,4.61,6.35,6.92,7.74,6.92,1.67,0,2.51-3.41,2.51-10.27V7.09c0-3.36,1.67-5.02,5.02-5.02h31.85c3.36,0,5.02,1.67,5.02,5.02v136.57c0,3.36-1.67,5.02-5.02,5.02h-31.85c-3.36,0-5.02-1.67-5.02-5.02v-15.91c0-10.33-1.01-20.43-3.04-30.27s-4.74-18.74-8.17-26.71-7.37-14.66-11.83-20.11c-4.48-5.45-9.15-8.87-14.04-10.27-1.54-.41-2.72-.21-3.56.62-.84.84-1.26,2.1-1.26,3.77v98.85c0,3.36-1.67,5.02-5.02,5.02h-31.83c-3.36,0-5.02-1.67-5.02-5.02V7.09c0-3.36,1.67-5.02,5.02-5.02h24.3Z"/>
    <path class="st0" d="M699.92,37.66c-10.33,0-18.54,3.45-24.61,10.37s-9.11,16.23-9.11,27.97,2.92,20.32,8.79,27.03,14.25,10.05,25.14,10.05c8.38,0,14.66-1.91,18.86-5.75s6.71-8.75,7.53-14.77c.28-1.67,0-2.92-.84-3.77-.84-.84-2.1-1.26-3.77-1.26h-19.27c-3.36,0-5.02-1.67-5.02-5.02v-2.51c0-3.36,1.67-5.02,5.02-5.02h61.16c3.36,0,5.02,1.67,5.02,5.02v63.67c0,3.36-1.67,5.02-5.02,5.02h-31.85c-3.36,0-5.02-1.67-5.02-5.02v-2.31c0-2.64-.49-3.97-1.46-3.97-.84,0-1.95.69-3.36,2.1-3.64,3.49-8.06,6.24-13.31,8.27-5.23,2.02-11.49,3.04-18.74,3.04-9.07,0-17.64-1.74-25.66-5.23-8.04-3.49-15.01-8.45-20.94-14.86-5.94-6.43-10.61-14.21-14.04-23.35-3.43-9.15-5.14-19.38-5.14-30.68s1.82-22.1,5.45-31.53c3.64-9.43,8.79-17.49,15.5-24.2s14.77-11.86,24.2-15.5c9.43-3.64,19.87-5.45,31.32-5.45,9.77,0,18.71,1.29,26.8,3.88,8.1,2.59,15.07,6.28,20.94,11.1s10.53,10.65,14.04,17.49c3.49,6.84,5.51,14.45,6.07,22.83.28,3.36-1.33,5.02-4.82,5.02h-31.85c-1.67,0-2.92-.41-3.77-1.26s-1.46-2.02-1.89-3.56c-1.12-5.3-4.01-9.6-8.7-12.88s-10.57-4.93-17.69-4.93h.02l.02-.03Z"/>
    <path class="st0" d="M786.42,148.68c-3.36,0-5.02-1.67-5.02-5.02V7.09c0-3.36,1.67-5.02,5.02-5.02h31.85c3.36,0,5.02,1.67,5.02,5.02v136.57c0,3.36-1.67,5.02-5.02,5.02h-31.85Z"/>
    <path class="st0" d="M922.97,64.9c3.36,0,5.02,1.67,5.02,5.02v10.89c0,3.36-1.67,5.02-5.02,5.02h-40.22c-3.36,0-5.02,1.67-5.02,5.02v15.09c0,3.36,1.67,5.02,5.02,5.02h48.58c3.36,0,5.02,1.67,5.02,5.02v27.65c0,3.36-1.67,5.02-5.02,5.02h-90.47c-3.36,0-5.02-1.67-5.02-5.02V7.09c0-3.36,1.67-5.02,5.02-5.02h90.47c3.36,0,5.02,1.67,5.02,5.02v27.65c0,3.36-1.67,5.02-5.02,5.02h-48.58c-3.36,0-5.02,1.67-5.02,5.02v15.09c0,3.36,1.67,5.02,5.02,5.02h40.22Z"/>
  </g>
  <g>
    <path class="st0" d="M350.24,356.9c-3.36,0-5.02-1.67-5.02-5.02v-136.57c0-3.36,1.67-5.02,5.02-5.02h31.85c3.36,0,5.02,1.67,5.02,5.02v56.96c0,3.36,1.67,5.02,5.02,5.02h31.85c3.36,0,5.02-1.67,5.02-5.02v-56.96c0-3.36,1.67-5.02,5.02-5.02h31.85c3.36,0,5.02,1.67,5.02,5.02v136.57c0,3.36-1.67,5.02-5.02,5.02h-31.85c-3.36,0-5.02-1.67-5.02-5.02v-56.98c0-3.36-1.67-5.02-5.02-5.02h-31.85c-3.36,0-5.02,1.67-5.02,5.02v56.98c0,3.36-1.67,5.02-5.02,5.02h-31.85Z"/>
    <path class="st0" d="M573.51,356.9c-2.79,0-4.46-1.33-5.02-3.97l-4.18-22.42c-.56-2.64-2.23-3.97-5.02-3.97h-23.88c-2.79,0-4.4,1.33-4.82,3.97l-4.4,22.42c-.41,2.66-2.02,3.97-4.82,3.97h-31.62c-4.2,0-5.87-2.02-5.02-6.07l27.44-136.57c.41-2.64,2.02-3.97,4.82-3.97h60.75c2.79,0,4.46,1.33,5.02,3.97l27.23,136.57c.84,4.05-.77,6.07-4.82,6.07h-31.66,0ZM534.77,307.89c-.56,4.05,1.12,6.07,5.02,6.07h15.29c4.05,0,5.66-2.02,4.82-6.07l-7.53-39.38c-1.67-8.66-3.36-12.99-5.02-12.99-1.54,0-3.15,4.33-4.82,12.99l-7.74,39.38h-.02,0Z"/>
    <path class="st0" d="M670.7,304.53c-3.36,0-5.02,1.67-5.02,5.02v42.3c0,3.36-1.67,5.02-5.02,5.02h-31.85c-3.36,0-5.02-1.67-5.02-5.02v-136.57c0-3.36,1.67-5.02,5.02-5.02h62c9.63,0,18.33,1.14,26.07,3.45s14.34,5.59,19.79,9.84,9.63,9.43,12.56,15.5c2.92,6.07,4.4,12.82,4.4,20.21,0,6.71-1.22,12.84-3.67,18.42-2.44,5.59-5.9,10.37-10.37,14.34s-9.8,7.05-16.03,9.22c-6.22,2.17-13.16,3.24-20.84,3.24h-32.05l.02.04h.01ZM665.68,278.55c0,3.36,1.67,5.02,5.02,5.02h19.68c6.56,0,11.75-1.61,15.59-4.82,3.84-3.21,5.75-7.46,5.75-12.78,0-5.59-2.02-9.99-6.07-13.2s-9.5-4.82-16.34-4.82h-18.65c-3.36,0-5.02,1.67-5.02,5.02v25.55l.04.02h0Z"/>
    <path class="st0" d="M815.21,304.53c-3.36,0-5.02,1.67-5.02,5.02v42.3c0,3.36-1.67,5.02-5.02,5.02h-31.85c-3.36,0-5.02-1.67-5.02-5.02v-136.57c0-3.36,1.67-5.02,5.02-5.02h62c9.63,0,18.33,1.14,26.07,3.45s14.34,5.59,19.79,9.84,9.63,9.43,12.56,15.5c2.92,6.07,4.4,12.82,4.4,20.21,0,6.71-1.22,12.84-3.67,18.42-2.44,5.59-5.9,10.37-10.37,14.34s-9.8,7.05-16.03,9.22c-6.22,2.17-13.16,3.24-20.84,3.24h-32.05l.02.04h.01ZM810.19,278.55c0,3.36,1.67,5.02,5.02,5.02h19.68c6.56,0,11.75-1.61,15.59-4.82,3.84-3.21,5.75-7.46,5.75-12.78,0-5.59-2.02-9.99-6.07-13.2s-9.5-4.82-16.34-4.82h-18.65c-3.36,0-5.02,1.67-5.02,5.02v25.55l.04.02h0Z"/>
    <path class="st0" d="M968.74,254.47c1.54,2.66,3,3.97,4.4,3.97s2.87-1.33,4.4-3.97l23.47-41.69c1.12-1.67,2.59-2.51,4.4-2.51h34.56c5.72,0,7.2,2.51,4.4,7.53l-49.63,87.96c-.41.84-.62,1.67-.62,2.51v43.56c0,3.36-1.67,5.02-5.02,5.02h-31.85c-3.36,0-5.02-1.67-5.02-5.02v-43.56c0-.84-.21-1.67-.64-2.51l-49.63-87.96c-2.66-5.02-1.18-7.53,4.4-7.53h34.56c1.95,0,3.43.84,4.4,2.51l23.47,41.69h-.07.02Z"/>
  </g>
  <g>
    <path class="st0" d="M345.22,411.15c0-3.36,1.67-5.02,5.02-5.02h107.23c3.36,0,5.02,1.67,5.02,5.02v27.65c0,3.36-1.67,5.02-5.02,5.02h-27.65c-3.36,0-5.02,1.67-5.02,5.02v98.85c0,3.36-1.67,5.02-5.02,5.02h-31.85c-3.36,0-5.02-1.67-5.02-5.02v-98.85c0-3.36-1.67-5.02-5.02-5.02h-27.65c-3.36,0-5.02-1.67-5.02-5.02v-27.65h0Z"/>
    <path class="st0" d="M520.73,482.99c-.56-.41-1.05-.64-1.46-.64-1.54,0-2.31,1.41-2.31,4.18v61.16c0,3.36-1.67,5.02-5.02,5.02h-31.85c-3.36,0-5.02-1.67-5.02-5.02v-136.57c0-3.36,1.67-5.02,5.02-5.02h76.45c6.28,0,12.03.94,17.28,2.83s9.67,4.5,13.31,7.85c3.64,3.36,6.47,7.33,8.49,11.94,2.02,4.61,3.04,9.63,3.04,15.09s-1.01,10.48-3.04,15.09-4.85,8.58-8.49,11.94-8.06,5.98-13.31,7.85c-5.23,1.89-11,2.83-17.28,2.83h-8.17c-5.3,0-6.07,1.95-2.31,5.87,2.79,2.92,5.59,5.94,8.38,9,2.79,3.07,5.68,5.83,8.7,8.27,3,2.44,6.15,4.44,9.43,5.96,3.28,1.54,6.73,2.31,10.37,2.31,2.38,0,4.33-.28,5.87-.84.56-.13,1.05-.24,1.46-.32s.84-.11,1.26-.11c1.95,0,3.36,1.18,4.2,3.56l8.38,24.29c.69,1.95.28,3.56-1.26,4.82-3.49,3.21-7.61,5.75-12.35,7.65-4.74,1.89-9.71,2.83-14.86,2.83-6.84,0-12.67-1.54-17.49-4.61s-8.9-6.97-12.26-11.73c-3.36-4.74-6.19-9.99-8.49-15.71-2.31-5.72-4.37-11.25-6.19-16.55s-3.49-10.08-5.02-14.34-3.36-7.22-5.45-8.9v.04-.02ZM516.97,463.93c0,3.36,1.67,5.02,5.02,5.02h17.17c5.72,0,10.08-1.05,13.08-3.15s4.5-5.17,4.5-9.22-1.54-7.2-4.61-9.43c-3.07-2.23-7.82-3.36-14.25-3.36h-15.91c-3.36,0-5.02,1.67-5.02,5.02v15.09l.02.02h0Z"/>
    <path class="st0" d="M624.61,552.73c-3.36,0-5.02-1.67-5.02-5.02v-136.57c0-3.36,1.67-5.02,5.02-5.02h31.85c3.36,0,5.02,1.67,5.02,5.02v136.57c0,3.36-1.67,5.02-5.02,5.02h-31.85Z"/>
    <path class="st0" d="M720.97,500.38c-3.36,0-5.02,1.67-5.02,5.02v42.3c0,3.36-1.67,5.02-5.02,5.02h-31.85c-3.36,0-5.02-1.67-5.02-5.02v-136.57c0-3.36,1.67-5.02,5.02-5.02h62c9.63,0,18.33,1.14,26.07,3.45s14.34,5.59,19.79,9.84c5.45,4.25,9.63,9.43,12.56,15.5s4.4,12.82,4.4,20.21c0,6.71-1.22,12.84-3.67,18.42-2.44,5.59-5.9,10.37-10.37,14.34s-9.8,7.05-16.03,9.22c-6.22,2.17-13.16,3.24-20.84,3.24h-32.05l.02.04h.01ZM715.95,474.41c0,3.36,1.67,5.02,5.02,5.02h19.68c6.56,0,11.75-1.61,15.59-4.82,3.84-3.21,5.75-7.46,5.75-12.78,0-5.59-2.02-9.99-6.07-13.2-4.05-3.21-9.5-4.82-16.34-4.82h-18.65c-3.36,0-5.02,1.67-5.02,5.02v25.55l.04.02h0Z"/>
  </g>
  <g>
    <rect class="st0" y="4.32" width="248.99" height="547.33" rx="73.44" ry="73.44"/>
    <path class="st1" d="M157.05,156.01"/>
    <path class="st2" d="M213.99,84.69c-5.4-5.3-9.56-12.22-15.07-17.54-14.17-13.96-36.21-17.77-54.94-11.98-26.69,8.64-34.02,26.88-42.47,51.45-5.87,15.88-16.51,31.58-31.25,42.38-5.45,4.4-13.25,10.72-19.34,15.63,5.53-1.84,11.15-3.43,16.87-4.76,36.1-8.49,74.22-6.86,110.36.79-.15-3.3-.52-6.62-1.16-9.95-2.57-15.69-15.97-33.85-3.88-48.51,9.6-11.04,25.85-9.3,39.12-9.82,9.3-.24,6.65-2.91,1.76-7.7v.02h0ZM149.33,73.46c.34-1.39,1.29-2.77,3.04-4.07,4.16-3.09,11.25-1.35,14.11,2.79,8.64,12.46-20.67,15.58-17.15,1.27h0Z"/>
    <g>
      <path class="st2" d="M83.43,238.71c.69,1.05,1.03,2.49.82,4.39-.49,4.54-5.83,8.06-10.22,7.44-13.2-1.86,2.27-22.62,9.39-11.83h.01Z"/>
      <path class="st2" d="M179.83,241.78c-1.5,7.93-14.26,4.8-16.08-1.39-.34-1.16-.28-2.31.09-3.32.6-1.65,1.97-2.98,3.73-3.73,4.8-2.01,13.4,2.38,12.26,8.43h0Z"/>
      <path class="st2" d="M46.45,238.44c11.45-7.23,25.81-15.97,40.2-13.65,7.1,1.56,10.67,8.85,11.38,15.48,1.16,18.09-29.2,23.5-39.68,36.64l-.17.21c-22.9,26.47,36.83,34.47,53.53,35.46,23.56,1.27,48.41-3.43,67.98-16.34,5.32-3.52,11.3-9.07,10.7-15.89-1.27-9.35-10.27-14.83-17.68-19.59-4.82-3.15-10.53-4.76-15.29-7.95-12.43-9.22-9.22-25.21,5.32-29.95,9.92-3.71,20.39-2.27,30.27,1.84,1.2.47,2.61,1.09,3.73,1.31.96.21,1.56.09,1.72-.37.22-.58-.19-1.71-.99-3.15-3.77-6.47-9.17-12.28-15.24-16.74-12.01-8.81-26.88-10.91-41.39-12.2-26.41-2.34-57.77-.69-79.27,16.66-7.93,6.39-14.92,14.64-18.86,24.1-1.74,4.2-2.57,8.43,3.71,4.14v-.02h.03ZM103.61,271.84c.06-6.09,10.46-2.12,14.06-3.36,2.19-.34,4.52-2.4,3.24-4.7-1.33-2.49-4.48-3.77-6.41-6.05-5.12-5.49.34-11.79,6.49-13.55,6.05-1.87,17.83-1.91,19.62,5.59.66,4.69-3.22,8.68-5.81,12.09-2.57,3.26-1.39,6.92,3.09,6.39,3.58-.32,7.63-3.04,11.17-2.29,1.57.34,2.38,1.76,1.74,3.43-.99,2.53-3.79,4.33-6.17,5.6-9.82,5.14-21.7,5.3-32.73,2.47-3.04-.88-7.27-2.29-8.27-5.49l-.04-.15v.02h.02Z"/>
    </g>
    <g>
      <path class="st2" d="M193.56,427.49c-.54-2.77-2.64-5.79-4.42-8.04-12.67-14.94-40.34-44.01-48.36-50.33h-.06c-6.79-.88-16.51-1.46-23.8-2.16-3.54-.34-7.38-.13-9.65-2.61-3.67-3.22-7.8-6.58-12.45-8.32-8.27-3.26-13.18,3.54-15.28,10.59-.58,1.61-.58,2.81-1.33,3.95-.6.77-1.63,1.05-2.53,1.48-3.82,1.63-12.03,5.64-14.02,12.35-7.18,22.98,55.46,40.37,60.9,42.9,4.22,1.93,9.97,2.04,14.88.81,7.03-1.72,13.81-5.74,20.39-8.98,2.83-1.35,7.29-3.99,9.56-3.22,2.57.79,2.7,4.4.69,6.32-.99.99-2.38,1.67-3.69,2.31-7.98,3.73-26.67,12.01-33.03,18.71-2.32,2.32-2.85,5.64-1.5,8.73,3.34,7.25,12.54,5.83,19.7,5.81,5.47-.06,9.93-.9,13.85.88,1.78,1.07,2.19,3.13.88,4.57-1.46,1.67-5.25,2.04-7.67,2.27-5.75.41-11.34.64-17.11.97-4.39.06-8.58,1.05-11.51-3.06-2.81-3.47-5.75-7.5-8.3-11.23-1.46-2.17-2.12-4.18-3.64-5.96-3.82-4.97-12.3-1.52-10.42,4.55,2.08,4.74,8.38,5,10.85,9.47,2.51,3.84,4.42,6.62-.84,6.45-4.18,0-10.72.04-15.16,0-3.15.13-6.69-1.26-9.32.96-2.85,2.47-.94,8.19,2.49,9.5,3.97,1.41,7.52-2.38,11.1-3.47,1.74-.56,3.62-.62,5.47-.66,2.98.17,7.91-.64,8.81,1.2.26.97-.34,2.16-.73,3.13-1.8,3.77-4.12,9.11-6.24,12.86-1.86,3.45-8.55,5.79-5.87,10.48,2.02,2.77,6.77,2.91,8.85.22,2.25-2.7,3.32-5.19,5.9-8.77,3.11-4.39,5.59-8.81,8.49-12.22,1.12-1.11,2.31-1.05,3.94-1.31,14.41-1.91,41.65-5.23,50.53-6.58,2.83-.77,3.6-3.71,3.11-7.23-.77-3.56-3.58-6.34-6.15-9.02-3.45-3.67-7.46-7.29-10.29-10.96-.81-1.57,1.35-2.36,2.42-3.17,5.25-2.94,12.84-8.28,18.54-10.61,1.76-.43,2.47-1.8,2.04-3.62l-.04.04.02.02ZM94.32,387.15c.3-1.5,1.24-3.02,3.04-4.46,4.29-3.47,11.88-1.95,15.13,2.34,9.73,12.86-21.26,17.47-18.16,2.12h-.01Z"/>
      <path class="st2" d="M203.03,386.31c-.04,3.9-2.57,9.56-4.16,13.31-.32.73-.71,1.42-1.14,1.99-.84,1.12-1.86.56-2.77-.32-1.31-1.26-3.3-3.41-5.77-5.96-7.76-8.1-19.7-20.6-24.59-25.7-2.04-2.17-3.69-3.64-6.26-5.42-3.94-2.7-8.28-5.89-12.43-8.42-3.15-1.86-5.96-2.44-7.85-4.61-2.96-2.98-2.02-9.84,3.07-8.47,3.71,1.54,6.05,5.36,9.82,7.05,2.77,1.46,6.73,3.49,8.88,3.82.52.07,1.07.06,1.52-.17,1.01-.51,1.39-2.14,1.57-4.52.17-2.72.36-5.72.34-8.47-.04-5.7-2.55-9.02.41-12.88,2.74-3.52,8.77-2.25,8.79,2.55-.15,3.94-3.19,7.82-3.17,12.2,0,3.02-.88,10.01,1.24,11.51.96.62,2.64.11,5-.92,3.37-1.5,7.01-3.17,10.37-4.78,4.2-1.99,5.68-4.03,9.15-4.48,2.74-.45,7.68,1.54,5.51,4.78-.88,1.16-2.57,1.89-3.99,2.38-2.64.81-6.62,1.99-10.16,3.43-3.32,1.42-7.29,2.4-10.1,4.57-1.84,1.54-1.97,3.9-1.41,6.24.79,3.67,3.36,6.62,6.82,8.06,3.99,1.91,10.52,4.87,14.92,6.95,2.62,1.42,6.2,2.76,6.35,6.15v.11h.04v.02Z"/>
      <path class="st2" d="M80.3,426.72c-2.7-3.99-7.48-6.47-11.32-9.35-3.32-2.17-5.29-4.85-7.93-7.38-2.14-1.97-5.94-3.56-8.36-1.33-1.86,1.74-1.39,4.8.39,6.43,2.94,2.79,9.32,4.48,13.14,7.74,1.87,1.42,5.51,4.52,4.97,5.89-.3,1.57-4.65,2.98-6.69,3.92-2.64,1.07-5.38,2.29-8.06,3.22-3.41,1.26-5.62.97-7.91,2.53-2.83,1.8-3.79,7.09-.52,8.85,1.61.77,3.49-.11,4.8-1.16,1.87-1.65,4.16-3.75,6.8-4.8,3.22-1.42,6.77-2.79,10.03-4.1,2.59-1.01,4.25-1.52,4.84-.77.66.77.13,3.15-.52,6.52-.88,4.16-1.67,8.66-2.64,12.78-.79,3.32-2.19,4.72-2.57,7.14-.54,3.71,4.87,6.45,7.48,3.58,1.63-1.71,1.61-4.31,1.86-6.54.19-2.36.81-5.02,1.67-8.38,1.74-7.98,5.77-17.32.66-24.65l-.09-.13h-.03Z"/>
    </g>
    <path class="st2" d="M47.18,45.65s-36.21,48.83,9.56,66.99c.73.3,1.56-.19,1.65-.97.94-8.42-.73-36.72-4.74-51.77,10.53,8.23,15.67,42.1,16.98,49.09.22,1.16,1.99,1.14,2.76.24,35.29-41.84-26.2-63.58-26.2-63.58h-.01Z"/>
  </g>
  <path class="st0" d="M820.39,387.12l80.54-18.14c6.94-1.56,13.14,4.63,11.58,11.58l-17.92,79.51c-2.1,9.3-14.96,10.29-18.46,1.42l-13.63-34.56c-.96-2.44-2.87-4.39-5.29-5.38l-38.42-16.03c-8.72-3.64-7.61-16.33,1.59-18.39v-.02h0Z"/>
</svg>